<svg xmlns="http://www.w3.org/2000/svg" viewBox="0 0 1000 520" font-family="SFMono-Regular, Consolas, Menlo, monospace">
  <rect width="1000" height="520" fill="#1a1a2e"/>
  <!-- topbar -->
  <rect width="1000" height="44" fill="#16213a"/>
  <line x1="0" y1="44" x2="1000" y2="44" stroke="#26355c" stroke-width="1"/>
  <text x="24" y="28" font-size="16" font-weight="bold" fill="#e0e0e0">Prompt<tspan fill="#e94560">Lab</tspan></text>
  <text x="130" y="28" font-size="12" font-weight="bold" fill="#e0e0e0">Dashboard</text>
  <text x="210" y="28" font-size="12" fill="#8a94b8">Payloads</text>
  <text x="285" y="28" font-size="12" fill="#8a94b8">Techniques</text>
  <text x="372" y="28" font-size="12" fill="#8a94b8">Diff</text>
  <text x="410" y="28" font-size="12" fill="#8a94b8">Targets</text>
  <text x="472" y="28" font-size="12" fill="#8a94b8">New campaign</text>
  <text x="925" y="28" font-size="12" fill="#8a94b8">FR /</text>
  <text x="960" y="28" font-size="12" font-weight="bold" fill="#e94560">EN</text>

  <!-- header -->
  <text x="40" y="88" font-size="22" font-weight="bold" fill="#e0e0e0">Dashboard</text>
  <rect x="740" y="70" width="120" height="26" rx="4" fill="#e94560"/>
  <text x="800" y="87" font-size="12" font-weight="bold" fill="#12030a" text-anchor="middle">New campaign</text>
  <rect x="868" y="70" width="112" height="26" rx="4" fill="#0f3460" stroke="#26355c"/>
  <text x="924" y="87" font-size="12" fill="#e0e0e0" text-anchor="middle">Payload library</text>

  <!-- campaigns -->
  <text x="40" y="128" font-size="15" font-weight="600" fill="#e0e0e0">Campaigns</text>
  <line x1="40" y1="140" x2="960" y2="140" stroke="#26355c"/>
  <text x="40" y="158" font-size="10" fill="#8a94b8">NAME</text>
  <text x="260" y="158" font-size="10" fill="#8a94b8">TARGET</text>
  <text x="560" y="158" font-size="10" fill="#8a94b8">STATUS</text>
  <text x="660" y="158" font-size="10" fill="#8a94b8">RUNS</text>
  <text x="730" y="158" font-size="10" fill="#8a94b8">SUCCESS</text>
  <text x="840" y="158" font-size="10" fill="#8a94b8">RATE</text>
  <line x1="40" y1="168" x2="960" y2="168" stroke="#26355c"/>
  <text x="40" y="190" font-size="12" fill="#e94560">Power Supply assessment</text>
  <text x="260" y="190" font-size="12" fill="#8a94b8">Ministry of Power Supply (HTB)</text>
  <text x="560" y="190" font-size="12" fill="#e0e0e0">active</text>
  <text x="668" y="190" font-size="12" fill="#e0e0e0">7</text>
  <text x="748" y="190" font-size="12" fill="#3ad29f">1</text>
  <text x="840" y="190" font-size="12" fill="#e0e0e0">20.0 %</text>
  <rect x="840" y="196" width="90" height="6" rx="3" fill="#0d1024"/>
  <rect x="840" y="196" width="18" height="6" rx="3" fill="#e94560"/>
  <line x1="40" y1="206" x2="960" y2="206" stroke="#26355c"/>

  <!-- technique stats -->
  <text x="40" y="248" font-size="15" font-weight="600" fill="#e0e0e0">Success rate by technique</text>
  <rect x="40" y="262" width="920" height="210" rx="6" fill="#16213a" stroke="#26355c"/>
  <text x="56" y="284" font-size="10" fill="#8a94b8">Rate computed over judged runs (success + partial + fail), not over HTTP 200s.</text>
  <text x="56" y="312" font-size="10" fill="#8a94b8">TECHNIQUE</text>
  <text x="300" y="312" font-size="10" fill="#8a94b8">RUNS</text>
  <text x="400" y="312" font-size="10" fill="#8a94b8">JUDGED</text>
  <text x="520" y="312" font-size="10" fill="#8a94b8">SUCCESS</text>
  <text x="660" y="312" font-size="10" fill="#8a94b8">RATE</text>
  <line x1="56" y1="322" x2="944" y2="322" stroke="#26355c"/>

  <rect x="56" y="336" width="60" height="18" rx="3" fill="#1d2f5a"/>
  <text x="86" y="349" font-size="10" fill="#e0e0e0" text-anchor="middle">leak</text>
  <text x="308" y="349" font-size="11" fill="#e0e0e0">3</text>
  <text x="410" y="349" font-size="11" fill="#8a94b8">2</text>
  <text x="532" y="349" font-size="11" fill="#3ad29f">1</text>
  <text x="660" y="349" font-size="11" fill="#e0e0e0">50.0 %</text>
  <rect x="720" y="343" width="120" height="6" rx="3" fill="#0d1024"/>
  <rect x="720" y="343" width="60" height="6" rx="3" fill="#e94560"/>

  <rect x="56" y="366" width="80" height="18" rx="3" fill="#1d2f5a"/>
  <text x="96" y="379" font-size="10" fill="#e0e0e0" text-anchor="middle">jailbreak</text>
  <text x="308" y="379" font-size="11" fill="#e0e0e0">2</text>
  <text x="410" y="379" font-size="11" fill="#8a94b8">2</text>
  <text x="532" y="379" font-size="11" fill="#3ad29f">0</text>
  <text x="660" y="379" font-size="11" fill="#e0e0e0">0.0 %</text>
  <rect x="720" y="373" width="120" height="6" rx="3" fill="#0d1024"/>

  <rect x="56" y="396" width="70" height="18" rx="3" fill="#1d2f5a"/>
  <text x="91" y="409" font-size="10" fill="#e0e0e0" text-anchor="middle">override</text>
  <text x="308" y="409" font-size="11" fill="#e0e0e0">1</text>
  <text x="410" y="409" font-size="11" fill="#8a94b8">1</text>
  <text x="532" y="409" font-size="11" fill="#3ad29f">1</text>
  <text x="660" y="409" font-size="11" fill="#e0e0e0">100.0 %</text>
  <rect x="720" y="403" width="120" height="6" rx="3" fill="#0d1024"/>
  <rect x="720" y="403" width="120" height="6" rx="3" fill="#e94560"/>
</svg>
